<svg xmlns="http://www.w3.org/2000/svg" width="1000" height="620" viewBox="0 0 1000 620"><rect width="1000" height="620" fill="#f8fafc"/><g font-family="Arial, sans-serif" fill="#0f172a"><text x="50" y="40" font-size="24" font-weight="bold">充电实测：显示 100%，仍处于恒压阶段</text><text x="50" y="69" font-size="15">2026-09-07 · 北京时间 · 500 mA 为配置上限，未测量实际电流</text><text x="50" y="98" font-size="16">电池电压 / mV</text><path d="M90 260H910" stroke="#cbd5e1"/><text x="76" y="265" text-anchor="end" font-size="13">4160</text><path d="M90 222.5H910" stroke="#cbd5e1"/><text x="76" y="227.5" text-anchor="end" font-size="13">4170</text><path d="M90 185H910" stroke="#cbd5e1"/><text x="76" y="190" text-anchor="end" font-size="13">4180</text><path d="M90 147.5H910" stroke="#cbd5e1"/><text x="76" y="152.5" text-anchor="end" font-size="13">4190</text><path d="M90 110H910" stroke="#cbd5e1"/><text x="76" y="115" text-anchor="end" font-size="13">4200</text><rect x="143.6929347826087" y="110" width="696.4592391304348" height="150" fill="#e2e8f0" opacity=".75"/><text x="475" y="190" text-anchor="middle" font-size="16" fill="#64748b">此区间无连续采样，不插值</text><polyline points="90,248.75 90.5570652173913,241.25 107.26902173913044,211.25 123.98097826086956,200 140.6929347826087,181.25" fill="none" stroke="#2563eb" stroke-width="2"/><circle cx="90" cy="248.75" r="4" fill="#2563eb"><title>11:04:00 · 4163 mV · 90%</title></circle><circle cx="90.5570652173913" cy="241.25" r="4" fill="#2563eb"><title>11:04:01 · 4165 mV · 90%</title></circle><circle cx="107.26902173913044" cy="211.25" r="4" fill="#2563eb"><title>11:04:31 · 4173 mV · 90%</title></circle><circle cx="123.98097826086956" cy="200" r="4" fill="#2563eb"><title>11:05:01 · 4176 mV · 90%</title></circle><circle cx="140.6929347826087" cy="181.25" r="4" fill="#2563eb"><title>11:05:31 · 4181 mV · 91%</title></circle><polyline points="843.1521739130435,121.25 859.8641304347826,125 876.5760869565217,117.5 893.2880434782609,121.25 910,117.5" fill="none" stroke="#2563eb" stroke-width="2"/><circle cx="843.1521739130435" cy="121.25" r="4" fill="#2563eb"><title>11:26:32 · 4197 mV · 100%</title></circle><circle cx="859.8641304347826" cy="125" r="4" fill="#2563eb"><title>11:27:02 · 4196 mV · 100%</title></circle><circle cx="876.5760869565217" cy="117.5" r="4" fill="#2563eb"><title>11:27:32 · 4198 mV · 100%</title></circle><circle cx="893.2880434782609" cy="121.25" r="4" fill="#2563eb"><title>11:28:02 · 4197 mV · 100%</title></circle><circle cx="910" cy="117.5" r="4" fill="#2563eb"><title>11:28:32 · 4198 mV · 100%</title></circle><text x="50" y="328" font-size="16">芯片电量 / %</text><path d="M90 490H910" stroke="#cbd5e1"/><text x="76" y="495" text-anchor="end" font-size="13">88</text><path d="M90 452.5H910" stroke="#cbd5e1"/><text x="76" y="457.5" text-anchor="end" font-size="13">91</text><path d="M90 415H910" stroke="#cbd5e1"/><text x="76" y="420" text-anchor="end" font-size="13">94</text><path d="M90 377.5H910" stroke="#cbd5e1"/><text x="76" y="382.5" text-anchor="end" font-size="13">97</text><path d="M90 340H910" stroke="#cbd5e1"/><text x="76" y="345" text-anchor="end" font-size="13">100</text><rect x="143.6929347826087" y="340" width="696.4592391304348" height="150" fill="#e2e8f0" opacity=".75"/><text x="475" y="420" text-anchor="middle" font-size="16" fill="#64748b">此区间无连续采样，不插值</text><polyline points="90,465 90.5570652173913,465 107.26902173913044,465 123.98097826086956,465 140.6929347826087,452.5" fill="none" stroke="#059669" stroke-width="2"/><circle cx="90" cy="465" r="4" fill="#059669"><title>11:04:00 · 4163 mV · 90%</title></circle><circle cx="90.5570652173913" cy="465" r="4" fill="#059669"><title>11:04:01 · 4165 mV · 90%</title></circle><circle cx="107.26902173913044" cy="465" r="4" fill="#059669"><title>11:04:31 · 4173 mV · 90%</title></circle><circle cx="123.98097826086956" cy="465" r="4" fill="#059669"><title>11:05:01 · 4176 mV · 90%</title></circle><circle cx="140.6929347826087" cy="452.5" r="4" fill="#059669"><title>11:05:31 · 4181 mV · 91%</title></circle><polyline points="843.1521739130435,340 859.8641304347826,340 876.5760869565217,340 893.2880434782609,340 910,340" fill="none" stroke="#059669" stroke-width="2"/><circle cx="843.1521739130435" cy="340" r="4" fill="#059669"><title>11:26:32 · 4197 mV · 100%</title></circle><circle cx="859.8641304347826" cy="340" r="4" fill="#059669"><title>11:27:02 · 4196 mV · 100%</title></circle><circle cx="876.5760869565217" cy="340" r="4" fill="#059669"><title>11:27:32 · 4198 mV · 100%</title></circle><circle cx="893.2880434782609" cy="340" r="4" fill="#059669"><title>11:28:02 · 4197 mV · 100%</title></circle><circle cx="910" cy="340" r="4" fill="#059669"><title>11:28:32 · 4198 mV · 100%</title></circle><text x="90" y="516" text-anchor="middle" font-size="13">11:04</text><text x="290.5434782608695" y="516" text-anchor="middle" font-size="13">11:10</text><text x="457.6630434782609" y="516" text-anchor="middle" font-size="13">11:15</text><text x="624.7826086956521" y="516" text-anchor="middle" font-size="13">11:20</text><text x="791.9021739130435" y="516" text-anchor="middle" font-size="13">11:25</text><text x="910" y="516" text-anchor="middle" font-size="13">11:28:32</text><text x="50" y="555" font-size="16">11:04:00 恒流 CC → 11:04:31 已进入恒压 CV → 11:28:32 仍为 CV</text><text x="50" y="583" font-size="15" fill="#475569">最新：100% · 4198 mV · charging=yes；尚未采到 stage=done。</text></g></svg>
